# xmcd CD database file
#
# Track frame offsets:
#	150
#	32232
#	56379
#	87594
#	114815
#	138809
#
# Disc length: 2179 seconds
#
# Revision: 0
# Processed by: cddbd v1.5.1PL2 Copyright (c) Steve Scherf et al.
# Submitted via: CDex 1.51
#
DISCID=44088106
DTITLE=Jackie MacLean - Demon´s Dance
DYEAR=1967
DGENRE=Jazz
TTITLE0=01-Demon´s.Dance
TTITLE1=02-Toyland
TTITLE2=03-Boo.Ann´s.Grind
TTITLE3=04-Sweet.Love.Of.Mine
TTITLE4=05-Floogeh
TTITLE5=06-Massage.From.Train
EXTD=YEAR: 1967
EXTT0=
EXTT1=
EXTT2=
EXTT3=
EXTT4=
EXTT5=
PLAYORDER=
